<svg width="30" height="30" viewBox="0 0 30 30" fill="none" xmlns="http://www.w3.org/2000/svg">
<path opacity="0.3" fill-rule="evenodd" clip-rule="evenodd" d="M10 3.75H7C5.89543 3.75 5 4.64543 5 5.75V26.75C5 27.8546 5.89543 28.75 7 28.75H23C24.1046 28.75 25 27.8546 25 26.75V5.75C25 4.64543 24.1046 3.75 23 3.75H20V4.375C20 5.41053 19.1605 6.25 18.125 6.25H11.875C10.8395 6.25 10 5.41053 10 4.375V3.75Z" fill="black"/>
<path fill-rule="evenodd" clip-rule="evenodd" d="M16.25 2.5H18.25C18.5261 2.5 18.75 2.72386 18.75 3V4.5C18.75 4.77614 18.5261 5 18.25 5H11.75C11.4739 5 11.25 4.77614 11.25 4.5V3C11.25 2.72386 11.4739 2.5 11.75 2.5H13.75C13.75 1.80964 14.3096 1.25 15 1.25C15.6904 1.25 16.25 1.80964 16.25 2.5Z" fill="black"/>
<rect opacity="0.3" x="8.75" y="12.5" width="6.25" height="2.5" rx="1.25" fill="black"/>
<rect opacity="0.3" x="8.75" y="17.5" width="11.25" height="2.5" rx="1.25" fill="black"/>
</svg>
