<svg width="24" height="24" viewBox="0 0 24 24" fill="none" xmlns="http://www.w3.org/2000/svg">
<rect opacity="0.3" x="2" y="5" width="4" height="4" rx="1" fill="black"/>
<path fill-rule="evenodd" clip-rule="evenodd" d="M9 5C8.44772 5 8 5.44772 8 6V8C8 8.55228 8.44772 9 9 9H11C11.5523 9 12 8.55228 12 8V6C12 5.44772 11.5523 5 11 5H9ZM3 11C2.44772 11 2 11.4477 2 12V14C2 14.5523 2.44772 15 3 15H5C5.55228 15 6 14.5523 6 14V12C6 11.4477 5.55228 11 5 11H3ZM8 12C8 11.4477 8.44772 11 9 11H11C11.5523 11 12 11.4477 12 12V14C12 14.5523 11.5523 15 11 15H9C8.44772 15 8 14.5523 8 14V12ZM15 5C14.4477 5 14 5.44772 14 6V8C14 8.55228 14.4477 9 15 9H17C17.5523 9 18 8.55228 18 8V6C18 5.44772 17.5523 5 17 5H15ZM14 12C14 11.4477 14.4477 11 15 11H17C17.5523 11 18 11.4477 18 12V14C18 14.5523 17.5523 15 17 15H15C14.4477 15 14 14.5523 14 14V12ZM3 17C2.44772 17 2 17.4477 2 18V20C2 20.5523 2.44772 21 3 21H5C5.55228 21 6 20.5523 6 20V18C6 17.4477 5.55228 17 5 17H3ZM8 18C8 17.4477 8.44772 17 9 17H11C11.5523 17 12 17.4477 12 18V20C12 20.5523 11.5523 21 11 21H9C8.44772 21 8 20.5523 8 20V18ZM15 17C14.4477 17 14 17.4477 14 18V20C14 20.5523 14.4477 21 15 21H17C17.5523 21 18 20.5523 18 20V18C18 17.4477 17.5523 17 17 17H15Z" fill="black"/>
</svg>
