<svg width="30" height="30" viewBox="0 0 30 30" fill="none" xmlns="http://www.w3.org/2000/svg">
<path fill-rule="evenodd" clip-rule="evenodd" d="M6 3.75C5.44772 3.75 5 4.19772 5 4.75V25.25C5 25.8023 5.44772 26.25 6 26.25H7.75C8.30228 26.25 8.75 25.8023 8.75 25.25V4.75C8.75 4.19772 8.30228 3.75 7.75 3.75H6ZM12.25 3.75C11.6977 3.75 11.25 4.19772 11.25 4.75V25.25C11.25 25.8023 11.6977 26.25 12.25 26.25H14C14.5523 26.25 15 25.8023 15 25.25V4.75C15 4.19772 14.5523 3.75 14 3.75H12.25Z" fill="black"/>
<rect opacity="0.3" x="16.8465" y="4.90527" width="3.75" height="22.5" rx="1" transform="rotate(-19 16.8465 4.90527)" fill="black"/>
</svg>
