<svg width="126" height="75" viewBox="0 0 126 75" fill="none" xmlns="http://www.w3.org/2000/svg">
<path fill-rule="evenodd" clip-rule="evenodd" d="M68.2501 58.7452C68.2501 59.0744 68.5506 59.2957 68.8699 59.2158C72.2754 58.3629 89.4936 54.3308 115.018 53.147C115.285 53.1346 115.5 52.915 115.5 52.6476C115.5 48.5995 115.5 20.1911 115.5 16.1123C115.5 15.8362 115.29 15.6255 115.014 15.6287C111.55 15.6689 90.1381 16.1446 68.6231 21.7769C68.4036 21.8343 68.2501 22.0164 68.2501 22.2433C68.2501 25.812 68.2501 54.146 68.2501 58.7452Z" fill="white"/>
<path opacity="0.3" fill-rule="evenodd" clip-rule="evenodd" d="M57.7499 58.7452C57.7499 59.0744 57.4494 59.2957 57.1301 59.2158C53.7246 58.3629 36.5064 54.3308 10.982 53.147C10.7149 53.1346 10.4999 52.915 10.4999 52.6476C10.4999 48.5995 10.4999 20.1911 10.4999 16.1123C10.4999 15.8362 10.7101 15.6255 10.9863 15.6287C14.4499 15.6689 35.8619 16.1446 57.3769 21.7769C57.5964 21.8343 57.7499 22.0164 57.7499 22.2433C57.7499 25.812 57.7499 54.146 57.7499 58.7452Z" fill="white" stroke="white"/>
<line x1="10.0189" y1="72.0002" x2="116.019" y2="74.0002" stroke="white" stroke-width="2"/>
</svg>
