<svg width="21" height="19" viewBox="0 0 21 19" fill="none" xmlns="http://www.w3.org/2000/svg">
<path d="M19.748 15.0139L11.748 1.0139C11.5736 0.706101 11.3206 0.450084 11.0149 0.271965C10.7092 0.0938463 10.3618 0 10.008 0C9.65421 0 9.30675 0.0938463 9.00107 0.271965C8.69539 0.450084 8.44243 0.706101 8.268 1.0139L0.267996 15.0139C0.0916782 15.3193 -0.000775929 15.6658 4.90526e-06 16.0184C0.00078574 16.371 0.0947738 16.7171 0.272442 17.0217C0.450111 17.3263 0.705144 17.5785 1.01169 17.7527C1.31824 17.927 1.6654 18.0171 2.018 18.0139H18.018C18.3689 18.0135 18.7135 17.9209 19.0173 17.7452C19.321 17.5695 19.5732 17.317 19.7485 17.013C19.9238 16.709 20.016 16.3643 20.0159 16.0134C20.0159 15.6625 19.9234 15.3178 19.748 15.0139Z" fill="#B2B2B3"/>
</svg>
