<svg width="22" height="21" viewBox="0 0 22 21" fill="none" xmlns="http://www.w3.org/2000/svg">
<path d="M20.8811 3.24419C21.4585 3.8216 21.468 4.7548 20.9024 5.34379L13.3402 13.2189C13.0649 13.5056 12.6871 13.6713 12.2897 13.6797L9.10944 13.7464L9.17648 10.5509C9.18463 10.1625 9.3431 9.79251 9.61854 9.51865L17.3515 1.82986C17.9378 1.24694 18.8852 1.24829 19.4698 1.83289L20.8811 3.24419Z" fill="black"/>
<path opacity="0.3" d="M13.2875 0.75C13.7707 0.75 14.1625 1.14175 14.1625 1.625C14.1625 2.10825 13.7707 2.5 13.2875 2.5H7.25C6.2835 2.5 5.5 3.2835 5.5 4.25V14.75C5.5 15.7165 6.2835 16.5 7.25 16.5H17.75C18.7165 16.5 19.5 15.7165 19.5 14.75V10.375C19.5 9.89175 19.8918 9.5 20.375 9.5C20.8582 9.5 21.25 9.89175 21.25 10.375V14.75C21.25 16.683 19.683 18.25 17.75 18.25H7.25C5.317 18.25 3.75 16.683 3.75 14.75V4.25C3.75 2.317 5.317 0.75 7.25 0.75H13.2875Z" fill="black"/>
</svg>
